<svg xmlns="http://www.w3.org/2000/svg" viewBox="0 0 116.49 116.54"><defs><style>.cls-1{fill:#aeb3b6;}.cls-2{fill:#202723;}.cls-3{fill:#162d32;}.cls-4{fill:#aeb2b5;}.cls-5{fill:#718087;}.cls-6{fill:#727f86;}</style></defs><title>資產 6</title><g id="圖層_2" data-name="圖層 2"><g id="圖層_1-2" data-name="圖層 1"><polygon class="cls-1" points="40.7 5.11 65.13 17.33 65.13 116.54 45.68 105.83 45.47 31 9.35 86.99 0 64.15 40.7 5.11"/><polygon class="cls-2" points="45.47 31 45.51 42.58 20.25 82.68 9.35 86.99 45.47 31"/><polygon class="cls-3" points="26.66 60.16 34.97 59.13 45.56 63.22 45.58 68.39 26.66 60.16"/><polygon class="cls-4" points="26.66 60.16 45.58 68.39 45.61 79.45 21.09 68.47 26.66 60.16"/><polygon class="cls-5" points="40.7 5.11 60.9 0 85.01 11.77 65.13 17.33 40.7 5.11"/><polygon class="cls-2" points="65.13 17.33 85.01 11.77 85.56 84.72 116.49 62.78 116.49 79.89 65.13 116.54 65.13 17.33"/><polygon class="cls-6" points="116.49 62.78 106.23 58.99 85.47 73.35 85.56 84.72 116.49 62.78"/></g></g></svg>