<svg xmlns="http://www.w3.org/2000/svg" viewBox="0 0 14.88 14.88"><defs><style>.cls-1{fill:#aeb3b6;}.cls-2{fill:#202723;}.cls-3{fill:#162d32;}.cls-4{fill:#aeb2b5;}.cls-5{fill:#718087;}.cls-6{fill:#727f86;}</style></defs><title>資產 2</title><g id="圖層_2" data-name="圖層 2"><g id="圖層_1-2" data-name="圖層 1"><g id="圖層_1-2-2" data-name="圖層 1-2"><polygon class="cls-1" points="5.2 0.65 8.32 2.21 8.32 14.88 5.83 13.52 5.81 3.96 1.19 11.11 0 8.19 5.2 0.65"/><polygon class="cls-2" points="5.81 3.96 5.81 5.44 2.59 10.56 1.19 11.11 5.81 3.96"/><polygon class="cls-3" points="3.4 7.68 4.47 7.55 5.82 8.07 5.82 8.73 3.4 7.68"/><polygon class="cls-4" points="3.4 7.68 5.82 8.73 5.83 10.15 2.69 8.74 3.4 7.68"/><polygon class="cls-5" points="5.2 0.65 7.78 0 10.86 1.5 8.32 2.21 5.2 0.65"/><polygon class="cls-2" points="8.32 2.21 10.86 1.5 10.93 10.82 14.88 8.02 14.88 10.2 8.32 14.88 8.32 2.21"/><polygon class="cls-6" points="14.88 8.02 13.57 7.53 10.92 9.37 10.93 10.82 14.88 8.02"/></g></g></g></svg>